<?xml version="1.0" encoding="UTF-8" standalone="no"?>
<!DOCTYPE svg PUBLIC "-//W3C//DTD SVG 1.1//EN" "http://www.w3.org/Graphics/SVG/1.1/DTD/svg11.dtd">
<svg width="100%" height="100%" viewBox="0 0 192 192" version="1.1" xmlns="http://www.w3.org/2000/svg" xmlns:xlink="http://www.w3.org/1999/xlink" xml:space="preserve" xmlns:serif="http://www.serif.com/" style="fill-rule:evenodd;clip-rule:evenodd;stroke-linejoin:round;stroke-miterlimit:2;">
    <g transform="matrix(1.03453,0,0,1,-6.62948,0)">
        <path d="M192,48C192,21.508 171.21,0 145.602,0L52.806,0C27.198,0 6.408,21.508 6.408,48L6.408,144C6.408,170.492 27.198,192 52.806,192L145.602,192C171.21,192 192,170.492 192,144L192,48Z" style="fill:rgb(61,59,63);"/>
    </g>
    <g transform="matrix(0.254026,0,0,0.254026,22.8374,30.9567)">
        <path d="M9.4,86.6C-3.1,74.1 -3.1,53.9 9.4,41.4C21.9,28.9 42.2,28.9 54.7,41.4L246.7,233.4C259.2,245.9 259.2,266.2 246.7,278.7L54.7,470.7C42.2,483.2 21.9,483.2 9.4,470.7C-3.1,458.2 -3.1,437.9 9.4,425.4L178.7,256L9.4,86.6ZM256,416L544,416C561.7,416 576,430.3 576,448C576,465.7 561.7,480 544,480L256,480C238.3,480 224,465.7 224,448C224,430.3 238.3,416 256,416Z" style="fill:rgb(153,203,230);fill-rule:nonzero;"/>
    </g>
</svg>
